<?xml version="1.0" standalone="no"?>
<!DOCTYPE svg PUBLIC "-//W3C//DTD SVG 20010904//EN"
 "http://www.w3.org/TR/2001/REC-SVG-20010904/DTD/svg10.dtd">
<svg version="1.0" xmlns="http://www.w3.org/2000/svg"
 width="758.000000pt" height="407.000000pt" viewBox="0 0 758.000000 407.000000"
 preserveAspectRatio="xMidYMid meet">

<g transform="translate(0.000000,407.000000) scale(0.100000,-0.100000)"
fill="#000000" stroke="none">
<path d="M4120 3625 c-25 -8 -73 -15 -107 -15 -41 0 -63 -4 -63 -11 0 -7 -8
-18 -17 -25 -17 -11 -16 -14 9 -37 24 -22 35 -25 85 -23 32 2 72 -3 90 -10 21
-8 44 -10 70 -4 21 5 85 12 143 16 65 4 113 12 127 21 24 16 29 15 175 -7 67
-10 84 -10 127 5 61 20 74 49 35 83 -14 12 -35 22 -47 22 -51 0 -194 -21 -215
-32 -18 -9 -32 -8 -71 6 -69 24 -280 32 -341 11z"/>
<path d="M1913 3622 c-21 -2 -40 -13 -54 -30 -19 -24 -20 -34 -14 -92 4 -36 8
-91 9 -122 l1 -58 1200 1 c660 1 1189 4 1175 6 -14 3 -27 9 -30 13 -7 11 -179
100 -194 100 -7 0 -40 14 -74 30 -34 17 -71 30 -81 30 -11 0 -36 20 -56 44
-20 25 -57 55 -81 67 -41 19 -57 21 -192 17 -106 -3 -157 -9 -182 -20 -59 -27
-210 -39 -535 -43 -170 -1 -322 -6 -337 -10 -20 -5 -35 -1 -60 17 -18 14 -46
30 -63 36 -28 10 -358 21 -432 14z"/>
<path d="M5343 3623 c-66 -6 -85 -65 -25 -77 34 -7 361 -1 368 7 3 3 3 11 -1
16 -13 22 -72 38 -165 45 -52 4 -104 8 -115 10 -11 2 -39 1 -62 -1z"/>
<path d="M4997 3614 c-12 -13 -8 -36 11 -50 39 -30 118 -2 96 34 -11 18 -93
30 -107 16z"/>
<path d="M5906 3581 c-4 -5 -3 -17 0 -26 10 -24 48 -15 52 13 3 18 -1 22 -22
22 -14 0 -27 -4 -30 -9z"/>
<path d="M4615 3393 c-16 -3 -35 -13 -43 -24 -7 -10 -20 -19 -28 -19 -8 0 -14
-4 -14 -10 0 -14 -53 -12 -81 3 -13 6 -24 19 -24 27 0 9 -11 16 -27 18 -20 2
-31 -4 -44 -23 -10 -15 -27 -31 -38 -35 -12 -5 131 -9 331 -9 342 -1 351 -1
346 18 -13 49 -35 55 -196 57 -84 1 -165 0 -182 -3z"/>
<path d="M3115 3230 c-3 -5 -33 -10 -65 -10 -32 0 -62 -4 -65 -10 -3 -5 -15
-10 -25 -10 -29 0 -70 -22 -70 -37 0 -8 -4 -11 -10 -8 -5 3 -10 1 -10 -5 0 -6
-19 -31 -42 -55 -51 -51 -78 -83 -78 -91 0 -2 -9 -15 -20 -26 -11 -12 -28 -39
-38 -60 -16 -36 -53 -57 -102 -58 -8 0 -42 -9 -75 -19 -42 -14 -52 -19 -33
-20 31 -1 49 -21 19 -21 -12 0 -21 -4 -21 -10 0 -5 -7 -10 -17 -10 -38 0 -168
-163 -156 -197 2 -6 -1 -14 -6 -18 -14 -8 -15 -65 -2 -65 14 0 20 13 23 49 1
17 4 31 6 31 1 0 29 -17 60 -37 l57 -38 129 -2 c71 -1 134 1 140 4 5 4 19 8
30 9 35 3 119 22 146 33 24 9 23 10 -12 10 -20 1 -40 6 -43 11 -4 6 11 10 38
10 25 0 60 3 78 7 l33 6 -39 11 c-21 6 -40 17 -43 24 -6 19 326 17 363 -2 17
-9 23 -16 15 -21 -17 -10 7 -25 41 -25 15 0 38 -10 53 -21 34 -26 48 -17 16
11 -13 11 -20 23 -16 27 4 4 10 2 14 -4 6 -10 82 -15 82 -5 0 2 -7 11 -16 19
-13 14 -17 14 -25 2 -7 -11 -9 -11 -9 3 0 9 -6 19 -12 21 -7 3 8 6 34 6 28 1
49 -4 52 -11 5 -10 7 -10 12 0 9 19 49 14 69 -8 13 -14 22 -17 29 -10 15 15
29 12 23 -4 -8 -19 3 -28 19 -15 8 7 14 7 19 -1 3 -5 17 -10 31 -10 25 0 33
-15 12 -23 -7 -3 -3 -6 9 -6 12 -1 28 -9 35 -19 7 -10 25 -22 41 -26 15 -3 27
-13 27 -20 0 -8 6 -16 14 -19 11 -5 469 -11 534 -8 14 1 17 41 2 41 -5 0 -10
13 -10 29 0 17 -4 33 -10 36 -5 3 -10 17 -10 30 0 13 -5 27 -10 30 -6 4 -8 11
-5 16 4 5 -1 16 -9 25 -9 9 -14 20 -11 25 4 5 1 9 -4 9 -6 0 -11 9 -11 20 0
11 -4 20 -9 20 -5 0 -14 14 -21 30 -16 37 -37 50 -86 50 -22 0 -43 7 -53 18
-41 44 -86 66 -143 70 -32 3 -58 8 -58 13 0 5 -18 9 -40 9 -22 0 -40 5 -40 10
0 6 -19 10 -43 10 -24 0 -47 4 -53 9 -5 5 -110 11 -234 12 -205 2 -290 11
-290 29 0 4 9 15 20 25 11 10 19 28 19 39 -1 17 -2 18 -6 4 -5 -22 -36 -23
-53 -3 -16 19 3 45 31 45 12 0 19 7 19 20 0 21 -34 29 -45 10 -11 -19 -37 11
-32 37 2 13 0 23 -4 23 -5 0 -9 9 -9 20 0 21 -33 29 -45 10z m45 -130 c0 -5
-4 -10 -10 -10 -5 0 -10 5 -10 10 0 6 5 10 10 10 6 0 10 -4 10 -10z m90 -139
c0 -5 -16 -9 -35 -8 -19 1 -35 5 -35 9 0 4 16 8 35 8 19 0 35 -4 35 -9z m-172
-18 c-10 -2 -26 -2 -35 0 -10 3 -2 5 17 5 19 0 27 -2 18 -5z m-265 -40 c-7 -2
-19 -2 -25 0 -7 3 -2 5 12 5 14 0 19 -2 13 -5z m377 -233 c0 -6 -43 -10 -110
-10 -67 0 -110 4 -110 10 0 6 43 10 110 10 67 0 110 -4 110 -10z m200 0 c0 -5
-2 -10 -4 -10 -3 0 -8 5 -11 10 -3 6 -1 10 4 10 6 0 11 -4 11 -10z m-21 -52
c-8 -14 -14 -18 -17 -10 -2 6 -10 12 -18 12 -8 0 -14 5 -14 10 0 6 14 10 30
10 29 0 30 -1 19 -22z m917 -120 c4 -5 -37 -8 -92 -7 -54 1 -88 4 -76 7 33 9
159 9 168 0z m-243 -5 c-7 -2 -19 -2 -25 0 -7 3 -2 5 12 5 14 0 19 -2 13 -5z"/>
<path d="M3204 3183 c10 -13 23 -20 29 -16 7 4 6 8 -3 11 -8 3 -22 10 -30 16
-8 6 -7 1 4 -11z"/>
<path d="M6110 2328 c0 -544 3 -798 11 -798 5 0 21 11 34 25 21 21 25 33 25
89 l0 64 83 6 c45 3 164 5 265 4 l184 -3 28 32 c38 42 54 123 47 238 -5 103
-19 139 -56 154 -14 5 -123 12 -241 15 -235 6 -311 18 -341 55 -26 32 -24 45
19 130 29 60 37 86 35 124 0 29 -7 53 -15 58 -10 7 -9 9 5 9 9 0 17 7 17 16 0
17 25 46 33 38 3 -3 16 6 30 20 21 21 27 40 37 128 16 130 9 282 -13 325 -22
42 -43 52 -122 62 l-65 7 0 -798z"/>
<path d="M3302 3018 c3 -7 26 -12 60 -12 44 -1 54 2 46 12 -14 16 -111 17
-106 0z"/>
<path d="M3513 2615 c-10 -17 -8 -20 15 -22 14 0 21 2 15 5 -5 4 -12 14 -15
22 -4 12 -7 11 -15 -5z"/>
<path d="M3450 2555 c0 -8 6 -15 14 -15 22 0 28 17 10 24 -22 9 -24 8 -24 -9z"/>
<path d="M3358 2523 c-89 -3 -115 -11 -89 -28 13 -8 331 -8 339 0 4 3 -2 11
-13 18 -22 12 -88 14 -237 10z"/>
<path d="M3113 2513 c-20 -8 -15 -23 7 -23 11 0 20 7 20 15 0 15 -6 17 -27 8z"/>
<path d="M4658 2514 c-5 -4 -8 -11 -8 -16 0 -4 122 -8 271 -8 177 0 268 3 264
10 -4 6 -86 10 -213 9 -114 0 -230 3 -257 6 -28 4 -53 3 -57 -1z"/>
<path d="M2290 2474 c0 -9 5 -14 12 -12 18 6 21 28 4 28 -9 0 -16 -7 -16 -16z"/>
<path d="M2480 2475 c0 -17 88 -20 240 -8 124 9 72 21 -97 22 -121 1 -143 -1
-143 -14z"/>
<path d="M3100 2455 c0 -8 9 -15 20 -15 11 0 20 7 20 15 0 8 -9 15 -20 15 -11
0 -20 -7 -20 -15z"/>
<path d="M3320 2455 c0 -9 9 -19 20 -22 15 -4 19 -11 15 -24 -6 -18 0 -19 84
-19 l91 0 0 -30 c0 -16 5 -30 10 -30 6 0 10 -9 10 -19 0 -11 3 -21 8 -23 17
-8 42 -69 42 -107 0 -43 4 -46 70 -53 24 -3 25 -7 28 -73 2 -38 8 -75 13 -82
7 -7 8 -32 5 -60 -4 -26 -9 -75 -11 -108 -2 -33 -8 -75 -14 -92 -6 -20 -6 -35
0 -38 5 -4 9 3 9 14 0 12 5 21 10 21 6 0 10 18 10 40 0 22 4 40 8 40 11 0 36
156 27 170 -4 6 -8 45 -9 86 -2 72 -7 84 -38 96 -4 2 -9 25 -13 52 -9 77 -16
100 -26 84 -5 -7 -9 -26 -9 -41 0 -17 -4 -26 -10 -22 -10 6 -6 100 6 138 3 9
0 17 -6 17 -6 0 -9 4 -5 9 3 5 1 12 -5 16 -5 3 -10 17 -10 30 0 13 -5 27 -12
31 -6 4 -76 9 -155 12 -130 4 -143 3 -143 -13z m246 -20 c12 16 15 16 38 -11
17 -20 21 -31 13 -36 -7 -4 -7 -8 -2 -8 6 0 1 -8 -10 -17 -16 -13 -17 -15 -2
-10 18 7 21 -1 11 -27 -9 -23 -44 -20 -44 3 0 11 -7 27 -16 36 -15 15 -15 17
5 22 11 3 21 9 21 14 0 8 -30 10 -167 11 -58 1 -35 14 28 16 33 1 68 6 77 11
12 7 19 5 26 -6 8 -15 10 -15 22 2z m64 -156 c0 -5 -9 -9 -20 -9 -11 0 -20 6
-20 14 0 9 7 12 20 9 11 -3 20 -9 20 -14z"/>
<path d="M4695 2461 c-40 -16 36 -20 275 -12 213 7 221 8 90 10 -80 1 -190 4
-245 6 -55 3 -109 1 -120 -4z"/>
<path d="M2127 2443 c-13 -12 -7 -33 8 -33 8 0 15 9 15 20 0 20 -11 26 -23 13z"/>
<path d="M2350 2430 c0 -19 6 -20 124 -20 113 0 124 2 122 18 -3 15 -18 17
-124 20 -117 3 -122 2 -122 -18z"/>
<path d="M3680 2442 c0 -29 30 -32 280 -32 141 0 259 3 263 6 3 3 3 12 0 20
-4 12 -53 14 -274 14 -148 0 -269 -4 -269 -8z"/>
<path d="M3100 2400 c0 -5 9 -10 20 -10 11 0 20 5 20 10 0 6 -9 10 -20 10 -11
0 -20 -4 -20 -10z"/>
<path d="M4600 2400 c0 -5 5 -10 11 -10 5 0 7 5 4 10 -3 6 -8 10 -11 10 -2 0
-4 -4 -4 -10z"/>
<path d="M4700 2400 c0 -6 92 -10 255 -10 163 0 255 4 255 10 0 6 -92 10 -255
10 -163 0 -255 -4 -255 -10z"/>
<path d="M2120 2364 c6 -14 10 -43 10 -64 0 -21 5 -42 10 -45 6 -3 10 -16 10
-27 0 -12 5 -37 12 -55 15 -41 48 -46 48 -8 0 14 5 25 10 25 29 0 -2 103 -42
142 -16 14 -28 33 -28 42 0 9 -8 16 -20 16 -17 0 -18 -3 -10 -26z"/>
<path d="M2370 2383 c1 -5 7 -19 15 -33 9 -17 14 -56 15 -117 0 -98 -1 -97 53
-93 15 1 27 0 27 -2 -1 -14 -29 -79 -45 -103 -26 -40 -113 -123 -149 -142 -36
-19 -108 -40 -166 -48 -25 -4 -51 -11 -57 -17 -26 -22 -8 -238 19 -238 5 0 8
-5 8 -11 0 -12 60 -103 72 -107 4 -2 8 -10 8 -18 0 -8 3 -14 8 -14 4 0 19 -10
34 -23 76 -65 93 -75 100 -64 3 6 -4 24 -18 40 -24 28 -33 77 -15 77 6 0 11
16 13 35 5 61 23 39 20 -24 -3 -43 0 -62 12 -74 18 -18 21 -53 5 -63 -21 -12
14 -24 74 -24 53 0 57 -2 57 -24 0 -30 27 -36 166 -36 71 0 104 -4 104 -11 0
-8 -13 -9 -42 -5 -23 4 -78 4 -123 0 l-82 -7 -11 -48 c-7 -27 -9 -55 -6 -62 3
-8 -2 -17 -10 -20 -9 -4 -16 -13 -16 -22 0 -8 -4 -15 -10 -15 -5 0 -10 -9 -10
-20 0 -11 -4 -20 -9 -20 -5 0 -12 -15 -15 -34 -4 -18 -15 -41 -26 -51 -20 -18
-29 -62 -10 -50 6 3 10 1 10 -4 0 -6 13 -11 29 -11 59 0 61 -3 61 -114 l0
-101 -66 -13 c-36 -7 -77 -20 -92 -29 -26 -17 -26 -17 -13 0 12 16 10 17 -30
17 -37 0 -49 -5 -75 -34 l-31 -33 111 -5 c98 -5 142 -5 210 1 14 1 17 6 12 26
-4 14 -3 25 2 25 14 0 32 -23 32 -42 0 -13 8 -18 29 -18 53 0 94 13 98 31 3
10 18 20 37 23 l32 6 -6 53 c-3 28 0 95 7 147 7 52 13 131 13 175 1 105 9 145
29 153 9 3 21 13 28 21 10 14 16 11 48 -22 20 -20 49 -44 65 -52 23 -12 30
-23 30 -44 0 -25 5 -30 36 -35 44 -9 80 13 45 26 -21 7 -29 28 -11 28 6 0 10
-6 10 -12 0 -9 3 -9 8 -3 8 12 15 12 55 1 15 -5 27 -12 27 -17 0 -5 7 -9 15
-9 8 0 15 5 15 11 0 7 12 9 35 5 27 -5 37 -3 41 9 3 8 15 15 25 15 12 0 19 7
19 20 0 11 7 20 15 20 8 0 15 -5 15 -11 0 -6 7 -4 15 5 8 8 15 17 15 19 0 6
-78 16 -205 25 -90 6 -107 11 -172 45 -46 25 -70 44 -67 52 8 20 -12 27 -29
10 -13 -13 -16 -13 -21 1 -3 8 -12 14 -20 12 -8 -2 -22 6 -30 17 -10 12 -15
15 -16 7 0 -19 -50 43 -50 62 0 9 -4 16 -10 16 -5 0 -10 7 -10 15 0 8 -5 15
-11 15 -5 0 -8 4 -5 8 3 5 -1 19 -8 33 -7 13 -18 69 -24 124 -13 112 -16 459
-5 452 5 -3 9 14 9 36 1 23 3 48 5 55 2 8 -4 19 -15 25 -30 19 -70 57 -60 58
45 3 70 10 79 22 19 26 58 39 118 39 38 0 62 -5 68 -13 6 -10 16 -10 47 -1 22
7 50 12 63 13 21 1 20 2 -10 15 -32 14 -32 16 -15 29 17 13 15 14 -28 15 -53
0 -138 -20 -138 -32 0 -4 -18 -8 -40 -8 -45 0 -90 -18 -90 -35 0 -7 -9 -15
-19 -18 -17 -4 -20 1 -23 32 -3 35 -2 36 42 47 l45 12 -42 1 c-77 2 -49 34 42
49 l60 10 -72 1 c-41 0 -73 5 -73 11 0 6 -42 10 -105 10 -58 0 -105 -3 -105
-7z m130 -383 c0 -5 -5 -10 -11 -10 -5 0 -7 5 -4 10 3 6 8 10 11 10 2 0 4 -4
4 -10z m-20 -92 c0 -19 -2 -20 -10 -8 -13 19 -13 30 0 30 6 0 10 -10 10 -22z
m-29 -85 c-9 -16 -10 -16 -11 -1 0 9 3 25 7 35 7 16 8 17 11 1 2 -10 -1 -25
-7 -35z m-31 -8 c0 -13 6 -26 13 -28 8 -4 9 -8 1 -14 -33 -24 -38 -98 -8 -116
16 -9 19 -47 4 -47 -5 0 -10 8 -10 19 0 10 -6 24 -14 30 -11 9 -15 7 -20 -11
-3 -13 -6 -38 -6 -55 0 -18 -4 -33 -9 -33 -5 0 -9 -6 -8 -12 2 -55 -4 -110
-12 -103 -10 12 5 180 19 206 6 10 10 32 10 50 0 48 22 149 32 143 4 -3 8 -16
8 -29z m60 -73 c0 -5 -9 -26 -20 -48 l-19 -39 -1 32 c0 41 9 63 26 63 8 0 14
-4 14 -8z m-150 -132 c0 -11 -4 -20 -10 -20 -5 0 -10 9 -10 20 0 11 5 20 10
20 6 0 10 -9 10 -20z m90 -53 c0 -24 -3 -28 -10 -17 -13 20 -13 63 0 55 6 -3
10 -21 10 -38z m780 -497 c0 -5 -5 -10 -11 -10 -5 0 -7 5 -4 10 3 6 8 10 11
10 2 0 4 -4 4 -10z m-810 -135 c-7 -8 -17 -15 -23 -15 -5 0 -2 9 8 20 21 23
35 19 15 -5z m138 -285 c-7 -11 -16 -20 -20 -20 -11 0 -10 9 5 25 18 21 29 18
15 -5z"/>
<path d="M3720 2360 c0 -16 5 -30 10 -30 6 0 10 -9 10 -20 0 -11 5 -20 10 -20
6 0 10 -13 10 -30 0 -16 5 -30 10 -30 6 0 10 -9 10 -20 0 -22 19 -60 35 -72 6
-4 24 -8 41 -8 35 0 44 -13 44 -61 0 -16 5 -29 11 -29 7 0 9 -9 5 -23 -3 -12
2 -43 11 -67 19 -54 27 -357 10 -378 -6 -7 -11 -35 -12 -63 l-2 -49 42 0 c35
0 47 6 73 35 18 19 32 41 32 50 0 8 6 15 13 15 24 0 63 61 112 175 9 22 35 78
57 125 27 55 44 108 49 150 5 36 11 77 15 92 6 25 4 27 -32 30 l-39 3 -1 62
c-1 34 -5 92 -9 128 l-7 65 -254 0 -254 0 0 -30z"/>
<path d="M3230 2262 c0 -19 63 -28 165 -22 l50 3 -45 9 c-80 16 -170 21 -170
10z"/>
<path d="M2751 2210 c-18 -4 -47 -21 -64 -38 -29 -29 -29 -30 -8 -37 15 -4 21
-15 21 -35 0 -39 35 -63 81 -55 40 7 82 27 80 38 0 4 -1 16 -1 27 0 11 -7 20
-15 20 -8 0 -15 9 -15 19 0 14 5 18 20 14 11 -3 20 -10 20 -15 0 -13 87 -5
102 10 8 8 4 13 -16 18 -34 8 -33 24 2 25 42 2 -66 17 -123 17 -27 0 -65 -4
-84 -8z m99 -122 c0 -4 -9 -8 -20 -8 -11 0 -20 4 -20 9 0 6 9 9 20 8 11 -1 20
-5 20 -9z"/>
<path d="M3575 2200 c3 -5 8 -10 11 -10 2 0 4 5 4 10 0 6 -5 10 -11 10 -5 0
-7 -4 -4 -10z"/>
<path d="M3235 2189 c-5 -5 -19 -16 -30 -24 -19 -13 -19 -14 8 -24 16 -6 39
-11 52 -11 16 0 25 -7 29 -26 9 -33 45 -29 63 6 12 24 13 25 13 3 0 -17 6 -23
21 -23 17 0 20 5 16 21 -4 15 -2 19 9 15 9 -3 14 1 14 12 0 16 -41 42 -67 42
-7 0 -13 5 -13 10 0 13 -102 12 -115 -1z m92 -91 c-3 -8 -6 -5 -6 6 -1 11 2
17 5 13 3 -3 4 -12 1 -19z"/>
<path d="M3493 2120 c3 -13 0 -20 -9 -20 -8 0 -14 -4 -14 -10 0 -5 13 -10 29
-10 17 0 33 -4 36 -10 10 -16 23 -11 20 8 -2 9 -4 22 -4 28 -1 9 -42 34 -58
34 -3 0 -3 -9 0 -20z"/>
<path d="M3760 2044 c0 -54 4 -83 10 -79 6 3 10 42 10 86 0 46 -4 79 -10 79
-6 0 -10 -35 -10 -86z"/>
<path d="M2870 2110 c0 -5 7 -10 15 -10 8 0 15 5 15 10 0 6 -7 10 -15 10 -8 0
-15 -4 -15 -10z"/>
<path d="M2990 2100 c0 -5 5 -10 11 -10 5 0 7 5 4 10 -3 6 -8 10 -11 10 -2 0
-4 -4 -4 -10z"/>
<path d="M3855 1883 c-3 -21 -9 -68 -12 -105 -2 -38 -9 -68 -14 -68 -5 0 -9
-18 -9 -40 0 -22 -4 -40 -10 -40 -5 0 -10 -13 -10 -30 0 -16 -4 -30 -10 -30
-5 0 -10 -13 -10 -30 0 -16 -4 -30 -10 -30 -5 0 -10 -9 -10 -20 0 -11 -4 -20
-10 -20 -5 0 -10 -11 -10 -25 0 -14 -4 -25 -10 -25 -5 0 -10 -8 -10 -19 0 -10
-11 -35 -25 -55 -14 -20 -25 -43 -25 -51 0 -8 -6 -15 -12 -16 -7 0 -4 -4 7 -9
42 -18 142 16 132 45 -3 7 1 25 9 40 8 15 14 46 14 69 0 40 1 41 33 41 27 0
32 4 33 25 1 22 0 22 -3 3 -2 -13 -9 -23 -15 -23 -6 0 -8 17 -4 48 12 87 18
384 8 394 -6 6 -12 -4 -17 -29z m-15 -393 c0 -5 -4 -10 -10 -10 -5 0 -10 5
-10 10 0 6 5 10 10 10 6 0 10 -4 10 -10z"/>
<path d="M3051 1794 c-9 -11 -16 -13 -24 -5 -19 19 -37 12 -37 -15 0 -19 7
-28 30 -37 17 -6 30 -15 30 -19 0 -4 7 -8 16 -8 10 0 14 6 10 15 -7 19 18 20
33 1 11 -13 15 -12 32 5 11 11 19 29 17 40 -3 20 -3 20 -23 1 -20 -19 -20 -18
-37 10 -20 32 -27 34 -47 12z"/>
<path d="M3800 1786 c0 -9 5 -16 10 -16 6 0 10 4 10 9 0 6 -4 13 -10 16 -5 3
-10 -1 -10 -9z"/>
<path d="M3191 1774 c-17 -20 -3 -35 27 -27 14 3 22 12 20 22 -4 21 -30 24
-47 5z"/>
<path d="M3010 1563 c-8 -3 -34 -15 -57 -26 -34 -16 -40 -23 -32 -34 16 -19
113 -17 129 2 16 19 181 20 225 1 16 -7 40 -10 53 -8 21 4 18 7 -19 24 -24 10
-61 23 -84 28 -52 12 -195 21 -215 13z"/>
<path d="M6111 1230 l-1 -255 58 -3 c73 -4 107 19 117 78 4 22 11 40 16 40 5
0 9 11 9 24 0 12 12 36 27 52 15 16 28 41 29 55 1 15 5 36 8 47 14 43 -49 112
-101 112 -34 0 -152 64 -156 85 -2 11 -5 -95 -6 -235z"/>
<path d="M1590 1251 c0 -13 221 -13 240 -1 10 7 -27 10 -112 10 -73 0 -128 -4
-128 -9z"/>
<path d="M3630 1229 c0 -15 -53 -79 -65 -79 -6 0 -17 -9 -25 -20 -8 -11 -22
-20 -32 -20 -12 0 -18 -8 -18 -21 0 -11 -4 -18 -9 -14 -5 3 -17 -5 -25 -17
-14 -20 -16 -21 -16 -4 0 24 -9 17 -13 -11 -4 -30 -51 -89 -128 -164 -38 -36
-69 -70 -69 -75 0 -5 10 -15 22 -23 20 -12 24 -12 35 5 7 11 31 39 53 63 22
24 48 57 56 74 9 16 30 42 47 56 51 42 87 83 87 97 0 8 7 14 15 14 9 0 18 7
21 15 8 19 24 20 24 2 0 -12 -9 -26 -50 -74 -5 -7 -10 -16 -10 -20 0 -5 -9
-15 -20 -23 -11 -8 -20 -20 -20 -27 0 -7 -4 -13 -10 -13 -5 0 -10 -9 -10 -20
0 -11 -4 -20 -10 -20 -5 0 -10 -8 -10 -18 0 -10 -9 -24 -20 -32 -11 -8 -20
-25 -20 -38 0 -13 -4 -20 -10 -17 -5 3 -10 -1 -10 -9 0 -9 -5 -16 -11 -16 -6
0 -9 -6 -6 -14 3 -7 -1 -23 -9 -35 -8 -11 -12 -21 -8 -21 3 0 2 -6 -4 -13 -12
-14 -24 -87 -16 -87 20 0 54 64 54 100 0 16 4 30 8 30 5 0 15 18 22 40 7 22
17 40 22 40 4 0 8 9 8 20 0 11 5 20 10 20 6 0 10 9 10 20 0 12 10 32 23 45 56
59 67 74 67 88 0 8 7 17 15 21 8 3 15 12 15 20 0 8 13 25 29 39 16 13 31 33
34 43 3 13 5 11 6 -9 1 -19 -8 -37 -28 -55 -16 -15 -36 -43 -45 -63 -9 -20
-26 -46 -36 -57 -11 -12 -20 -25 -20 -30 0 -4 -8 -17 -18 -28 -9 -10 -28 -41
-41 -69 -13 -27 -28 -58 -33 -69 -7 -14 -6 -17 4 -14 7 3 27 31 43 63 17 33
42 71 58 86 15 14 27 34 27 43 0 9 4 16 8 16 5 0 15 12 23 28 8 15 29 47 47
72 18 25 36 50 40 56 9 13 29 48 42 74 6 11 14 29 20 40 8 16 7 18 -8 13 -9
-4 -20 -11 -24 -17 -5 -7 -8 -4 -8 7 0 13 -9 17 -40 17 -22 0 -40 -5 -40 -11z
m47 -71 c-3 -8 -6 -5 -6 6 -1 11 2 17 5 13 3 -3 4 -12 1 -19z"/>
<path d="M2320 1082 c0 -28 10 -52 22 -52 14 0 5 63 -9 68 -8 2 -13 -5 -13
-16z"/>
<path d="M2372 1088 c-7 -7 -12 -21 -12 -33 0 -11 -9 -38 -20 -60 -11 -21 -17
-41 -15 -44 7 -7 33 20 37 39 2 8 10 21 19 30 22 20 33 80 16 80 -7 0 -18 -5
-25 -12z"/>
<path d="M3335 1020 c3 -5 8 -10 11 -10 2 0 4 5 4 10 0 6 -5 10 -11 10 -5 0
-7 -4 -4 -10z"/>
<path d="M3706 953 c-6 -14 -5 -15 5 -6 7 7 10 15 7 18 -3 3 -9 -2 -12 -12z"/>
<path d="M3685 910 c-3 -4 -2 -10 2 -12 5 -1 16 -19 26 -38 18 -34 18 -35 0
-12 l-19 23 -32 -49 c-18 -28 -32 -57 -32 -66 0 -9 -5 -26 -12 -39 -23 -44
-25 -53 -24 -77 1 -15 10 -29 23 -35 12 -5 24 -16 25 -24 3 -12 34 -15 183
-16 99 -1 191 1 205 6 16 5 19 8 8 8 -10 1 -18 5 -18 9 0 5 -22 15 -50 22 -27
7 -50 17 -50 22 0 4 -9 8 -19 8 -13 0 -21 9 -26 30 -9 42 -55 96 -66 78 -7
-10 -9 -9 -9 4 0 9 -10 29 -23 45 -13 15 -31 47 -41 70 -18 41 -40 60 -51 43z
m-8 -142 c-3 -8 -6 -5 -6 6 -1 11 2 17 5 13 3 -3 4 -12 1 -19z m163 -69 c0
-25 -8 -24 -31 3 -24 27 -24 26 6 20 16 -3 25 -11 25 -23z m-123 -71 c-3 -8
-6 -5 -6 6 -1 11 2 17 5 13 3 -3 4 -12 1 -19z"/>
<path d="M3559 709 c-6 -13 -15 -26 -19 -29 -5 -3 -10 -14 -12 -25 -1 -11 -7
-23 -13 -27 -13 -9 21 -22 40 -14 9 3 15 18 15 39 0 18 5 38 12 45 9 9 9 15 1
23 -8 8 -14 5 -24 -12z"/>
<path d="M3180 710 c0 -5 5 -10 10 -10 6 0 10 5 10 10 0 6 -4 10 -10 10 -5 0
-10 -4 -10 -10z"/>
<path d="M3430 709 c0 -5 5 -7 10 -4 6 3 10 8 10 11 0 2 -4 4 -10 4 -5 0 -10
-5 -10 -11z"/>
<path d="M3220 685 c-7 -9 -8 -15 -2 -15 5 0 12 7 16 15 3 8 4 15 2 15 -2 0
-9 -7 -16 -15z"/>
<path d="M3410 660 c0 -5 5 -10 10 -10 6 0 10 5 10 10 0 6 -4 10 -10 10 -5 0
-10 -4 -10 -10z"/>
<path d="M2170 629 c0 -5 5 -7 10 -4 6 3 10 8 10 11 0 2 -4 4 -10 4 -5 0 -10
-5 -10 -11z"/>
<path d="M1430 550 c0 -13 11 -13 30 0 12 8 11 10 -7 10 -13 0 -23 -4 -23 -10z"/>
<path d="M1522 548 c6 -18 28 -21 28 -4 0 9 -7 16 -16 16 -9 0 -14 -5 -12 -12z"/>
<path d="M1610 550 c0 -7 14 -8 38 -4 51 9 53 14 4 14 -23 0 -42 -5 -42 -10z"/>
<path d="M2770 550 c0 -5 5 -10 11 -10 5 0 7 5 4 10 -3 6 -8 10 -11 10 -2 0
-4 -4 -4 -10z"/>
<path d="M3670 544 c0 -7 -8 -14 -18 -16 -17 -5 -18 -12 -11 -79 5 -40 6 -83
3 -95 -7 -27 24 -34 145 -34 99 0 123 9 97 35 -9 10 -20 14 -24 11 -3 -4 0
-11 8 -16 8 -5 11 -12 8 -16 -4 -3 -15 1 -24 11 -13 13 -14 19 -5 25 10 6 10
12 -1 31 -7 13 -15 26 -18 29 -3 3 -16 19 -28 37 -24 33 -30 55 -10 35 7 -7
18 -12 26 -12 8 0 27 -14 43 -31 20 -22 35 -30 49 -26 11 3 17 1 14 -4 -6 -11
19 -39 35 -39 6 0 11 5 11 10 0 6 7 10 15 10 8 0 15 -4 15 -10 0 -5 -4 -10
-10 -10 -5 0 -10 -4 -10 -10 0 -5 7 -10 15 -10 8 0 15 -4 15 -10 0 -5 9 -10
20 -10 13 0 20 7 20 20 0 11 -5 20 -11 20 -5 0 -7 -4 -4 -10 3 -5 -1 -10 -9
-10 -8 0 -15 9 -15 20 -1 11 -1 29 -2 40 0 11 -5 23 -11 27 -8 4 -5 9 7 13 17
6 14 10 -20 32 -32 21 -53 26 -102 26 -36 1 -63 -3 -63 -9 0 -6 -8 -8 -17 -5
-10 3 -40 8 -67 11 -28 3 -53 11 -58 18 -5 8 -8 8 -8 1z"/>
<path d="M2155 522 c-37 -3 -42 -7 -58 -43 -9 -21 -17 -41 -17 -44 0 -11 39
-4 43 8 4 10 6 10 6 0 1 -10 40 -13 160 -13 l160 0 9 43 c5 23 7 45 6 48 -3 6
-239 7 -309 1z"/>
<path d="M2493 518 c-17 -22 -24 -88 -9 -88 7 0 18 -24 25 -56 14 -60 10 -59
81 -33 19 6 41 14 49 16 19 5 10 12 -20 16 -23 4 -24 7 -24 78 l0 74 -46 3
c-29 2 -50 -2 -56 -10z"/>
</g>
</svg>
